<svg width="28" height="28" viewBox="0 0 28 28" fill="none" xmlns="http://www.w3.org/2000/svg">
<g clip-path="url(#clip0_71_112)">
<path d="M9.31911 27.2491C9.96248 27.2491 10.484 26.7275 10.484 26.0842C10.484 25.4408 9.96248 24.9193 9.31911 24.9193H8.73667C6.80662 24.9193 5.242 23.3547 5.242 21.4246V17.5114C5.242 16.5207 4.82153 15.5766 4.08514 14.9139L2.90622 13.8528L4.08514 12.7918C4.82153 12.1291 5.242 11.1849 5.242 10.1942V6.28105C5.242 4.351 6.80662 2.78638 8.73667 2.78638H9.31911C9.96248 2.78638 10.484 2.26486 10.484 1.62149C10.484 0.978142 9.96248 0.456604 9.31911 0.456604H8.73667C5.51994 0.456604 2.91222 3.06433 2.91222 6.28105V10.1942C2.91222 10.5245 2.77206 10.8392 2.5266 11.0601L0.385619 12.987C0.140159 13.2079 0 13.5226 0 13.8528C0 14.1831 0.140159 14.4978 0.385619 14.7187L2.5266 16.6456C2.77206 16.8665 2.91222 17.1812 2.91222 17.5114V21.4246C2.91222 24.6413 5.51994 27.2491 8.73667 27.2491H9.31911Z" fill="#acacac"/>
<path d="M18.3119 27.2491C17.6685 27.2491 17.147 26.7275 17.147 26.0842C17.147 25.4408 17.6685 24.9193 18.3119 24.9193H18.8943C20.8244 24.9193 22.389 23.3547 22.389 21.4246V17.5114C22.389 16.5207 22.8094 15.5766 23.5458 14.9139L24.7248 13.8528L23.5458 12.7918C22.8094 12.1291 22.389 11.1849 22.389 10.1942V6.28105C22.389 4.351 20.8244 2.78638 18.8943 2.78638H18.3119C17.6685 2.78638 17.147 2.26486 17.147 1.62149C17.147 0.978142 17.6685 0.456604 18.3119 0.456604H18.8943C22.111 0.456604 24.7188 3.06433 24.7188 6.28105V10.1942C24.7188 10.5245 24.8589 10.8392 25.1044 11.0601L27.2453 12.987C27.4908 13.2079 27.631 13.5226 27.631 13.8528C27.631 14.1831 27.4908 14.4978 27.2453 14.7187L25.1044 16.6456C24.8589 16.8665 24.7188 17.1812 24.7188 17.5114V21.4246C24.7188 24.6413 22.111 27.2491 18.8943 27.2491H18.3119Z" fill="#acacac"/>
</g>
<defs>
<clipPath id="clip0_71_112">
<rect width="27.8642" height="26.7925" fill="white" transform="translate(0 0.456604)"/>
</clipPath>
</defs>
</svg>
