<svg width="28" height="28" viewBox="0 0 28 28" fill="none" xmlns="http://www.w3.org/2000/svg">
<path d="M22.9289 2.90216H22.2578C21.7451 2.90216 21.3257 3.32159 21.3257 3.83423C21.3257 4.34686 21.7451 4.7663 22.2578 4.7663H22.9289C24.6206 4.7663 25.9954 6.14109 25.9954 7.8328V10.3121H1.86413V7.8328C1.86413 6.14109 3.23893 4.7663 4.93064 4.7663H5.63435C6.14698 4.7663 6.56641 4.34686 6.56641 3.83423C6.56641 3.32159 6.14698 2.90216 5.63435 2.90216H4.93064C2.21366 2.90216 0 5.11582 0 7.8328V22.2332C0 24.9502 2.21366 27.1639 4.93064 27.1639H22.9335C25.6505 27.1639 27.8642 24.9502 27.8642 22.2332V7.8328C27.8595 5.11116 25.6505 2.90216 22.9289 2.90216ZM22.9289 25.2997H4.93064C3.23893 25.2997 1.86413 23.9249 1.86413 22.2332V12.1762H26V22.2332C25.9954 23.9249 24.6206 25.2997 22.9289 25.2997Z" fill="#ABABAB"/>
<path d="M16.7448 4.7663C17.2575 4.7663 17.6769 4.34686 17.6769 3.83423C17.6769 3.32159 17.2575 2.90216 16.7448 2.90216H11.1245C10.6118 2.90216 10.1924 3.32159 10.1924 3.83423C10.1924 4.34686 10.6118 4.7663 11.1245 4.7663H16.7448Z" fill="#ABABAB"/>
<path d="M20.4545 5.42332V1.88147C20.4545 1.36883 20.035 0.949402 19.5224 0.949402C19.0098 0.949402 18.5903 1.36883 18.5903 1.88147V5.42332C18.5903 5.93596 19.0098 6.35539 19.5224 6.35539C20.035 6.35539 20.4545 5.94062 20.4545 5.42332Z" fill="#ABABAB"/>
<path d="M9.26941 5.42332V1.88147C9.26941 1.36883 8.84998 0.949402 8.33734 0.949402C7.8247 0.949402 7.40527 1.36883 7.40527 1.88147V5.42332C7.40527 5.93596 7.8247 6.35539 8.33734 6.35539C8.84998 6.35539 9.26941 5.94062 9.26941 5.42332Z" fill="#ABABAB"/>
</svg>
