<svg width="43" height="43" viewBox="0 0 43 23" fill="none" xmlns="http://www.w3.org/2000/svg">
<g clip-path="url(#clip0_115_89)">
<path d="M41.5765 6.32507L21.4957 0.088532C21.3188 0.0443012 21.1419 0.0443012 20.9207 0.088532L0.884165 6.32507C0.486088 6.45776 0.220703 6.81161 0.220703 7.20969C0.220703 7.60776 0.486088 8.00584 0.884165 8.0943L9.4207 10.7481V18.8866C9.4207 19.727 9.90724 20.5231 10.6592 20.877C12.2072 21.6289 15.613 22.8674 21.2303 22.8674C26.8476 22.8674 30.2534 21.6289 31.8015 20.877C32.5534 20.5231 33.0399 19.727 33.0399 18.8866V10.7924L37.1092 9.50969V13.0924C36.0034 13.4905 35.163 14.552 35.163 15.7905C35.163 17.3828 36.4457 18.6655 38.038 18.6655C39.6303 18.6655 40.913 17.3828 40.913 15.7905C40.913 14.552 40.1169 13.4905 38.9669 13.0924V8.93469L41.5322 8.13853C41.9303 8.00584 42.1957 7.65199 42.1957 7.25392C42.2399 6.81161 41.9745 6.45776 41.5765 6.32507ZM38.038 16.852C37.463 16.852 37.0207 16.4097 37.0207 15.8347C37.0207 15.2597 37.463 14.8174 38.038 14.8174C38.613 14.8174 39.0553 15.2597 39.0553 15.8347C39.0553 16.4097 38.613 16.852 38.038 16.852ZM21.2303 1.99045L38.1265 7.25392L21.2303 12.5174L4.33416 7.25392L21.2303 1.99045ZM31.1822 18.9308C31.1822 19.0635 31.0938 19.1962 31.0053 19.2405C29.8995 19.7712 26.6707 21.0539 21.2745 21.0539C15.8342 21.0539 12.6495 19.7712 11.5438 19.2405C11.4111 19.1962 11.3669 19.0635 11.3669 18.9308V11.3674L21.0092 14.3751C21.0976 14.4193 21.1861 14.4193 21.2745 14.4193C21.363 14.4193 21.4515 14.4193 21.5399 14.3751L31.1822 11.3674V18.9308Z" fill="#acacac"/>
</g>
<defs>
<clipPath id="clip0_115_89">
<rect width="42.4615" height="23" fill="#acacac"/>
</clipPath>
</defs>
</svg>
